<svg width="100" height="100" fill="none" xmlns="http://www.w3.org/2000/svg"><path d="M100 0v100H0L100 0z" fill="#67B0C7"/><g clip-path="url(#clip0_43607_267)"><path d="M75.657 67.645a1.776 1.776 0 01-1.776 1.776h-2.96v2.96a1.776 1.776 0 11-3.552 0v-2.96h-2.96a1.776 1.776 0 110-3.551h2.96v-2.96a1.776 1.776 0 113.552 0v2.96h2.96a1.776 1.776 0 011.776 1.775zm11.32 17.833a1.776 1.776 0 01-2.516 0l-7.028-7.029a13.633 13.633 0 112.516-2.516l7.035 7.035a1.776 1.776 0 01-.007 2.51zm-17.832-7.769a10.063 10.063 0 10-10.063-10.064A10.075 10.075 0 0069.145 77.71z" fill="#F5F5F5"/></g><defs><clipPath id="clip0_43607_267"><path fill="#fff" transform="translate(55.5 54)" d="M0 0h32v32H0z"/></clipPath></defs></svg>