<svg width="100" height="100" viewBox="0 0 100 100" fill="none" xmlns="http://www.w3.org/2000/svg">
<path d="M100 0V100H0L100 0Z" fill="#67B0C7"/>
<g clip-path="url(#clip0_43607_267)">
<path d="M75.6569 67.6455C75.6569 68.1166 75.4698 68.5683 75.1368 68.9013C74.8037 69.2344 74.352 69.4215 73.881 69.4215H70.9211V72.3814C70.9211 72.8524 70.734 73.3042 70.401 73.6372C70.0679 73.9703 69.6162 74.1574 69.1452 74.1574C68.6742 74.1574 68.2225 73.9703 67.8895 73.6372C67.5564 73.3042 67.3693 72.8524 67.3693 72.3814V69.4215H64.4094C63.9384 69.4215 63.4867 69.2344 63.1537 68.9013C62.8206 68.5683 62.6335 68.1166 62.6335 67.6455C62.6335 67.1745 62.8206 66.7228 63.1537 66.3898C63.4867 66.0567 63.9384 65.8696 64.4094 65.8696H67.3693V62.9097C67.3693 62.4386 67.5564 61.9869 67.8895 61.6539C68.2225 61.3208 68.6742 61.1337 69.1452 61.1337C69.6162 61.1337 70.0679 61.3208 70.401 61.6539C70.734 61.9869 70.9211 62.4386 70.9211 62.9097V65.8696H73.881C74.352 65.8696 74.8037 66.0567 75.1368 66.3898C75.4698 66.7228 75.6569 67.1745 75.6569 67.6455ZM86.9769 85.4777C86.8119 85.6432 86.6159 85.7746 86.4 85.8642C86.1841 85.9539 85.9527 86 85.719 86C85.4852 86 85.2538 85.9539 85.0379 85.8642C84.8221 85.7746 84.626 85.6432 84.461 85.4777L77.4328 78.4493C74.6868 80.5566 71.242 81.5405 67.7972 81.2013C64.3525 80.8621 61.1657 79.2252 58.8834 76.6228C56.601 74.0203 55.3941 70.6472 55.5073 67.1875C55.6205 63.7278 57.0455 60.4408 59.4931 57.9932C61.9407 55.5455 65.2276 54.1205 68.6872 54.0073C72.1468 53.8941 75.5199 55.1011 78.1223 57.3834C80.7247 59.6658 82.3615 62.8527 82.7006 66.2975C83.0398 69.7423 82.056 73.1872 79.9487 75.9334L86.9843 82.9676C87.3159 83.3016 87.5014 83.7535 87.5 84.2242C87.4986 84.6948 87.3105 85.1456 86.9769 85.4777ZM69.1452 77.7093C71.1356 77.7093 73.0813 77.1191 74.7362 76.0133C76.3912 74.9074 77.681 73.3357 78.4427 71.4968C79.2044 69.6579 79.4037 67.6344 79.0154 65.6822C78.6271 63.73 77.6686 61.9368 76.2612 60.5294C74.8538 59.1219 73.0607 58.1635 71.1085 57.7751C69.1564 57.3868 67.1329 57.5861 65.2941 58.3478C63.4552 59.1095 61.8835 60.3994 60.7777 62.0544C59.6719 63.7094 59.0817 65.6551 59.0817 67.6455C59.0848 70.3137 60.1461 72.8716 62.0327 74.7582C63.9193 76.6449 66.4772 77.7062 69.1452 77.7093Z" fill="#F5F5F5"/>
</g>
<defs>
<clipPath id="clip0_43607_267">
<rect width="32" height="32" fill="white" transform="translate(55.5 54)"/>
</clipPath>
</defs>
</svg>
